HIERARCHY
ROOT Hips
{
	OFFSET 0.000000 97.420761 0.000000
	CHANNELS 6 Xposition Yposition Zposition Xrotation Yrotation Zrotation
	JOINT RightUpLeg
	{
		OFFSET -8.571318 0.002251 -0.000250
		CHANNELS 6 Xposition Yposition Zposition Xrotation Yrotation Zrotation
		JOINT RightLeg
		{
			OFFSET 0.000000 -44.326080 -0.000105
			CHANNELS 6 Xposition Yposition Zposition Xrotation Yrotation Zrotation
			JOINT RightFoot
			{
				OFFSET 0.000000 -43.324329 -0.000176
				CHANNELS 6 Xposition Yposition Zposition Xrotation Yrotation Zrotation
				JOINT RightToeBase
				{
					OFFSET 0.000000 -7.938133 18.050686
					CHANNELS 6 Xposition Yposition Zposition Xrotation Yrotation Zrotation
					End Site
					{
						OFFSET 0.000000 0.000000 19.719055
					}
				}
			}
		}
	}
	JOINT LeftUpLeg
	{
		OFFSET 8.571318 -0.000084 0.000009
		CHANNELS 6 Xposition Yposition Zposition Xrotation Yrotation Zrotation
		JOINT LeftLeg
		{
			OFFSET 0.000000 -44.326080 -0.000105
			CHANNELS 6 Xposition Yposition Zposition Xrotation Yrotation Zrotation
			JOINT LeftFoot
			{
				OFFSET 0.000000 -43.324329 -0.000176
				CHANNELS 6 Xposition Yposition Zposition Xrotation Yrotation Zrotation
				JOINT LeftToeBase
				{
					OFFSET 0.000000 -7.938133 18.050686
					CHANNELS 6 Xposition Yposition Zposition Xrotation Yrotation Zrotation
					End Site
					{
						OFFSET 0.000000 0.000000 19.719055
					}
				}
			}
		}
	}
	JOINT Spine
	{
		OFFSET 0.000000 10.422829 -1.158092
		CHANNELS 6 Xposition Yposition Zposition Xrotation Yrotation Zrotation
		JOINT Spine1
		{
			OFFSET 0.000000 11.587624 0.000000
			CHANNELS 3 Xrotation Yrotation Zrotation
			JOINT Spine2
			{
				OFFSET 0.000000 10.579559 -0.000443
				CHANNELS 6 Xposition Yposition Zposition Xrotation Yrotation Zrotation
				JOINT Spine3
				{
					OFFSET 0.000000 10.567749 -0.000444
					CHANNELS 6 Xposition Yposition Zposition Xrotation Yrotation Zrotation
					JOINT LeftShoulder
					{
						OFFSET 3.218383 8.290512 0.000000
						CHANNELS 6 Xposition Yposition Zposition Xrotation Yrotation Zrotation
						JOINT LeftArm
						{
							OFFSET 15.038529 0.000000 0.000000
							CHANNELS 3 Xrotation Yrotation Zrotation
							JOINT LeftForeArm
							{
								OFFSET 32.129166 0.000000 0.000000
								CHANNELS 3 Xrotation Yrotation Zrotation
								JOINT LeftHand
								{
									OFFSET 26.275406 0.000000 0.000000
									CHANNELS 3 Xrotation Yrotation Zrotation
									End Site
									{
										OFFSET 26.275406 0.000000 0.000000
									}
								}
							}
						}
					}
					JOINT RightShoulder
					{
						OFFSET -3.218383 8.290512 0.000000
						CHANNELS 6 Xposition Yposition Zposition Xrotation Yrotation Zrotation
						JOINT RightArm
						{
							OFFSET -15.038529 0.000000 0.000000
							CHANNELS 3 Xrotation Yrotation Zrotation
							JOINT RightForeArm
							{
								OFFSET -32.129166 0.000000 0.000000
								CHANNELS 3 Xrotation Yrotation Zrotation
								JOINT RightHand
								{
									OFFSET -26.275406 0.000000 0.000000
									CHANNELS 3 Xrotation Yrotation Zrotation
									End Site
									{
										OFFSET -26.275406 0.000000 0.000000
									}
								}
							}
						}
					}
					JOINT Neck
					{
						OFFSET 0.000000 14.789474 0.000000
						CHANNELS 6 Xposition Yposition Zposition Xrotation Yrotation Zrotation
						JOINT Head
						{
							OFFSET 0.000000 9.838806 0.000953
							CHANNELS 6 Xposition Yposition Zposition Xrotation Yrotation Zrotation
							End Site
							{
								OFFSET 0.000000 9.838806 0.000000
							}
						}
					}
				}
			}
		}
	}
}
MOTION
Frames: 9
Frame Time: 0.016667
-145.618240 74.871643 -4.895866 -42.691199 50.483448 32.232025 -8.571322 0.002255 -0.000251 -35.251156 -0.002095 -2.990901 -0.000004 -44.326080 -0.000101 66.589891 -0.121470 1.638912 0.000003 -43.324333 -0.000180 -4.394608 -5.760189 16.932780 0.000004 -7.938132 18.050678 -0.000001 0.000001 -0.000000 8.571316 -0.000073 0.000010 -37.338988 -1.283802 0.001916 0.000002 -44.326069 -0.000103 67.095366 0.070108 -1.683475 0.000002 -43.324329 -0.000180 -1.962147 -7.154117 -14.192763 -0.000004 -7.938136 18.050680 -0.000000 -0.000000 -0.000001 -0.000005 10.422821 -1.158091 15.977911 -0.857158 0.973603 1.272890 -0.453149 0.358820 -0.000012 10.579581 -0.000453 7.093321 -0.453180 0.358774 0.000010 10.567751 -0.000451 11.156415 -0.315512 0.297458 3.218392 8.290524 0.000015 -5.629293 -4.880009 -11.812046 -5.879599 0.745727 -67.967513 -69.003666 -58.639933 -94.564174 -6.568035 -15.915729 -0.651278 -3.218372 8.290520 0.000016 -1.974234 6.892020 11.391234 -18.312951 -11.195142 72.212865 -44.054331 58.166588 82.064129 -8.403891 22.998348 -7.441525 0.000009 14.789471 0.000010 6.426749 -6.526816 3.500672 0.000012 9.838815 0.000963 -24.143599 -13.387026 3.080167 
-145.615402 74.866577 -4.893242 -42.686480 50.478103 32.221622 -8.571331 0.002264 -0.000264 -35.256839 -0.011748 -2.992947 -0.000003 -44.326096 -0.000105 66.602691 -0.113307 1.643510 -0.000014 -43.324326 -0.000178 -4.405287 -5.760880 16.937993 -0.000011 -7.938134 18.050669 -0.000001 0.000000 -0.000000 8.571299 -0.000068 -0.000004 -37.345036 -1.288543 0.013604 -0.000004 -44.326069 -0.000090 67.109880 0.078895 -1.692047 0.000001 -43.324329 -0.000190 -1.969479 -7.162695 -14.189873 -0.000008 -7.938130 18.050674 -0.000000 0.000001 -0.000002 -0.000009 10.422833 -1.158096 15.971035 -0.850905 0.972580 1.269853 -0.450308 0.358883 0.000011 10.579567 -0.000458 7.090283 -0.450344 0.358837 0.000009 10.567752 -0.000451 11.154131 -0.313389 0.297323 3.218386 8.290507 0.000002 -5.626914 -4.883039 -11.799901 -5.886580 0.729506 -67.969364 -68.896487 -58.248926 -94.583449 -6.608217 -15.832250 -0.694578 -3.218387 8.290519 -0.000010 -1.968678 6.903206 11.399898 -18.287750 -11.212452 72.196227 -44.059911 58.189073 82.084250 -8.402495 22.988967 -7.421380 -0.000000 14.789483 0.000006 6.453030 -6.500688 3.497096 0.000003 9.838811 0.000948 -24.092717 -13.338069 3.089435 
-145.612564 74.861305 -4.891516 -42.683539 50.473571 32.211978 -8.571323 0.002249 -0.000270 -35.262228 -0.020144 -2.994892 -0.000007 -44.326069 -0.000106 66.615771 -0.108603 1.648610 0.000008 -43.324329 -0.000170 -4.415638 -5.756696 16.942711 0.000001 -7.938134 18.050686 -0.000000 -0.000000 -0.000000 8.571311 -0.000092 -0.000002 -37.351456 -1.292618 0.021887 0.000004 -44.326073 -0.000107 67.124838 0.093398 -1.695052 -0.000000 -43.324326 -0.000180 -1.975299 -7.176228 -14.188863 -0.000000 -7.938134 18.050682 0.000001 0.000002 0.000001 -0.000013 10.422837 -1.158108 15.964167 -0.844477 0.972582 1.266818 -0.447476 0.359409 0.000007 10.579567 -0.000437 7.087250 -0.447511 0.359362 -0.000004 10.567752 -0.000450 11.151859 -0.311240 0.297535 3.218387 8.290507 -0.000020 -5.621442 -4.883186 -11.791318 -5.897624 0.708043 -67.976440 -68.812161 -57.867009 -94.611453 -6.680860 -15.756932 -0.763029 -3.218372 8.290514 -0.000019 -1.965508 6.915986 11.417529 -18.256541 -11.226090 72.176979 -44.077533 58.222329 82.095240 -8.400715 22.983909 -7.406620 0.000008 14.789479 -0.000027 6.479219 -6.474577 3.491334 -0.000007 9.838813 0.000949 -24.042297 -13.288068 3.094700 
-145.609146 74.855560 -4.890377 -42.682723 50.469316 32.203113 -8.571323 0.002253 -0.000247 -35.267064 -0.028419 -2.996764 -0.000001 -44.326088 -0.000098 66.629814 -0.105479 1.653896 -0.000008 -43.324329 -0.000172 -4.426266 -5.749748 16.946768 0.000006 -7.938133 18.050688 -0.000000 -0.000001 -0.000000 8.571311 -0.000076 0.000001 -37.357822 -1.297133 0.028129 0.000000 -44.326080 -0.000099 67.140923 0.112026 -1.694947 0.000003 -43.324337 -0.000172 -1.980782 -7.193139 -14.189320 -0.000000 -7.938130 18.050669 0.000000 -0.000001 -0.000001 -0.000005 10.422836 -1.158097 15.957431 -0.838268 0.973362 1.263844 -0.444809 0.360257 0.000011 10.579553 -0.000433 7.084276 -0.444843 0.360212 -0.000010 10.567754 -0.000436 11.149626 -0.309181 0.297999 3.218384 8.290521 0.000010 -5.614479 -4.880291 -11.785374 -5.910572 0.682859 -67.986965 -68.744160 -57.460005 -94.654373 -6.785654 -15.682160 -0.857464 -3.218373 8.290508 0.000022 -1.963106 6.932429 11.443460 -18.221034 -11.243339 72.154064 -44.104915 58.264942 82.104379 -8.399744 22.981524 -7.393298 0.000006 14.789488 0.000012 6.506793 -6.447182 3.482404 -0.000001 9.838820 0.000963 -23.989562 -13.234208 3.094994 
-145.606400 74.850319 -4.889849 -42.685554 50.466461 32.197867 -8.571333 0.002248 -0.000264 -35.269751 -0.035881 -2.997664 -0.000002 -44.326061 -0.000105 66.641480 -0.105015 1.657694 -0.000006 -43.324333 -0.000191 -4.432749 -5.740828 16.945817 0.000003 -7.938131 18.050676 -0.000001 0.000000 0.000000 8.571301 -0.000077 -0.000004 -37.362272 -1.303787 0.032751 -0.000013 -44.326069 -0.000106 67.154871 0.128152 -1.696195 0.000007 -43.324329 -0.000185 -1.986512 -7.207858 -14.190046 -0.000000 -7.938136 18.050673 -0.000000 0.000002 -0.000001 -0.000015 10.422831 -1.158111 15.952405 -0.834798 0.974814 1.261617 -0.443389 0.361180 0.000009 10.579554 -0.000428 7.082051 -0.443427 0.361134 -0.000007 10.567751 -0.000435 11.147956 -0.308065 0.298598 3.218389 8.290511 -0.000008 -5.610146 -4.875785 -11.784824 -5.918992 0.667439 -67.994916 -68.698985 -57.102065 -94.705033 -6.909550 -15.628029 -0.969820 -3.218380 8.290508 -0.000009 -1.960062 6.950397 11.472244 -18.195042 -11.274587 72.130274 -44.119829 58.293547 82.110731 -8.404516 22.982335 -7.378710 0.000013 14.789469 0.000001 6.533043 -6.423018 3.468566 -0.000014 9.838820 0.000965 -23.940102 -13.183757 3.084631 
-145.603943 74.845322 -4.889662 -42.693084 50.464897 32.196538 -8.571320 0.002254 -0.000267 -35.269389 -0.043709 -2.996792 -0.000002 -44.326080 -0.000108 66.650475 -0.108202 1.659101 -0.000004 -43.324333 -0.000172 -4.433639 -5.727622 16.936665 -0.000002 -7.938130 18.050684 0.000000 -0.000000 0.000000 8.571315 -0.000074 -0.000007 -37.364625 -1.315393 0.035990 0.000003 -44.326073 -0.000097 67.167568 0.140036 -1.700845 -0.000001 -43.324333 -0.000174 -1.993535 -7.217761 -14.190757 0.000002 -7.938131 18.050690 -0.000000 -0.000002 0.000001 0.000011 10.422814 -1.158095 15.948791 -0.834241 0.977138 1.260011 -0.443322 0.362251 -0.000007 10.579553 -0.000420 7.080441 -0.443358 0.362205 -0.000003 10.567758 -0.000436 11.146753 -0.307943 0.299395 3.218382 8.290519 0.000009 -5.609434 -4.868212 -11.790513 -5.922290 0.663835 -67.999519 -68.673263 -56.773779 -94.767816 -7.073533 -15.594469 -1.121790 -3.218393 8.290513 0.000003 -1.954956 6.972446 11.505746 -18.181998 -11.331163 72.103520 -44.112907 58.298171 82.114201 -8.420250 22.987748 -7.359066 -0.000013 14.789455 0.000005 6.560401 -6.402299 3.447360 0.000007 9.838815 0.000964 -23.889674 -13.135903 3.059315 
-145.601669 74.840195 -4.890055 -42.704870 50.464487 32.198461 -8.571327 0.002255 -0.000255 -35.267060 -0.051608 -2.994986 -0.000011 -44.326073 -0.000107 66.658336 -0.114172 1.659352 0.000003 -43.324333 -0.000173 -4.430813 -5.711244 16.921927 -0.000001 -7.938130 18.050690 0.000000 -0.000001 -0.000000 8.571316 -0.000085 0.000009 -37.365455 -1.330179 0.038131 -0.000002 -44.326065 -0.000099 67.179664 0.151086 -1.707271 0.000008 -43.324333 -0.000179 -2.001574 -7.226982 -14.191786 0.000008 -7.938132 18.050676 0.000000 -0.000001 -0.000000 -0.000010 10.422829 -1.158100 15.946397 -0.836233 0.980348 1.258936 -0.444442 0.363506 -0.000010 10.579546 -0.000444 7.079368 -0.444481 0.363460 -0.000006 10.567757 -0.000457 11.145939 -0.308699 0.300406 3.218373 8.290518 -0.000021 -5.611106 -4.858434 -11.801912 -5.921629 0.669091 -68.002142 -68.664766 -56.454399 -94.843672 -7.273067 -15.575753 -1.307134 -3.218397 8.290519 -0.000026 -1.948726 6.998321 11.545719 -18.176286 -11.406892 72.072901 -44.093806 58.290733 82.115512 -8.442851 22.996622 -7.336094 -0.000020 14.789480 -0.000024 6.589621 -6.382077 3.419137 0.000001 9.838822 0.000940 -23.836568 -13.085502 3.021220 
-145.600403 74.835503 -4.891462 -42.717786 50.465454 32.202853 -8.571318 0.002248 -0.000265 -35.265298 -0.056912 -2.994354 -0.000004 -44.326069 -0.000104 66.665583 -0.119652 1.660728 -0.000017 -43.324333 -0.000173 -4.427131 -5.699121 16.908960 -0.000010 -7.938134 18.050678 0.000001 0.000001 -0.000001 8.571322 -0.000087 -0.000003 -37.365199 -1.341450 0.040433 -0.000003 -44.326069 -0.000097 67.188298 0.163388 -1.713512 0.000001 -43.324329 -0.000188 -2.008883 -7.240841 -14.192780 0.000002 -7.938136 18.050684 -0.000000 -0.000001 -0.000001 0.000002 10.422838 -1.158102 15.946108 -0.840997 0.983611 1.258790 -0.446797 0.364558 -0.000013 10.579543 -0.000446 7.079220 -0.446831 0.364511 0.000002 10.567770 -0.000445 11.145835 -0.310384 0.301344 3.218385 8.290517 0.000002 -5.614529 -4.852420 -11.816582 -5.915664 0.683820 -68.001507 -68.670380 -56.199237 -94.914569 -7.441070 -15.573910 -1.461340 -3.218383 8.290510 0.000000 -1.943996 7.020117 11.583790 -18.173334 -11.476309 72.044487 -44.076249 58.288138 82.116687 -8.459629 23.003725 -7.316633 0.000003 14.789480 0.000002 6.615352 -6.361060 3.389789 0.000004 9.838786 0.000962 -23.790049 -13.033197 2.981116 
-145.600021 74.831055 -4.894205 -42.733505 50.469009 32.211015 -8.571308 0.002256 -0.000253 -35.264472 -0.059529 -2.996236 -0.000002 -44.326065 -0.000095 66.673622 -0.123063 1.664585 -0.000012 -43.324329 -0.000184 -4.423791 -5.694576 16.899331 -0.000003 -7.938132 18.050680 -0.000001 0.000001 -0.000001 8.571322 -0.000069 0.000014 -37.363570 -1.348331 0.042874 0.000006 -44.326077 -0.000100 67.193372 0.180391 -1.719177 -0.000001 -43.324333 -0.000178 -2.016218 -7.264391 -14.193785 0.000003 -7.938132 18.050682 -0.000000 -0.000000 -0.000000 0.000003 10.422837 -1.158098 15.948470 -0.849951 0.987277 1.259803 -0.451012 0.365450 0.000006 10.579563 -0.000441 7.080236 -0.451050 0.365404 -0.000003 10.567755 -0.000448 11.146587 -0.313487 0.302283 3.218379 8.290526 -0.000018 -5.621283 -4.852566 -11.835815 -5.899829 0.711425 -67.997593 -68.696800 -56.003040 -94.986717 -7.574965 -15.594756 -1.581333 -3.218383 8.290522 -0.000008 -1.941983 7.036458 11.622607 -18.170769 -11.537250 72.017146 -44.061994 58.300883 82.115908 -8.466215 23.008172 -7.301421 -0.000002 14.789468 -0.000011 6.638850 -6.335923 3.356286 0.000006 9.838822 0.000935 -23.747869 -12.971566 2.935286 
